<svg xmlns="http://www.w3.org/2000/svg" width="26" height="26" viewBox="0 0 26 26">
  <metadata><?xpacket begin="﻿" id="W5M0MpCehiHzreSzNTczkc9d"?>
<x:xmpmeta xmlns:x="adobe:ns:meta/" x:xmptk="Adobe XMP Core 5.6-c138 79.159824, 2016/09/14-01:09:01        ">
   <rdf:RDF xmlns:rdf="http://www.w3.org/1999/02/22-rdf-syntax-ns#">
      <rdf:Description rdf:about=""/>
   </rdf:RDF>
</x:xmpmeta>                       
<?xpacket end="w"?></metadata>
<defs>
    <style>
      .cls-1 {
        fill: #fff;
        fill-rule: evenodd;
      }
    </style>
  </defs>
  <path id="Basket_icon" class="cls-1" d="M1474.31,35h3.13a1.315,1.315,0,0,1,1.31,1.315V36.4a1.315,1.315,0,0,1-1.31,1.315h-3.13A1.315,1.315,0,0,1,1473,36.4V36.315A1.315,1.315,0,0,1,1474.31,35Zm3.44,2.625h19.97a1.252,1.252,0,0,1,1.25,1.254v0.087a1.252,1.252,0,0,1-1.25,1.253h-19.97a1.252,1.252,0,0,1-1.25-1.253V38.878A1.252,1.252,0,0,1,1477.75,37.625Zm0.98,0.641,2.56,16.856a1.244,1.244,0,0,1-1.03,1.429l-0.12.02a1.252,1.252,0,0,1-1.44-1.031l-2.56-16.857a1.251,1.251,0,0,1,1.04-1.428l0.12-.02A1.247,1.247,0,0,1,1478.73,38.265Zm0.72,10.516h16.7a1.321,1.321,0,0,1,1.32,1.324v0.1a1.321,1.321,0,0,1-1.32,1.323h-16.7a1.33,1.33,0,0,1-1.33-1.323V50.1A1.33,1.33,0,0,1,1479.45,48.781Zm0.49,5.281h14.72a1.185,1.185,0,0,1,1.18,1.188v0.125a1.185,1.185,0,0,1-1.18,1.187h-14.72a1.187,1.187,0,0,1-1.19-1.187V55.25A1.187,1.187,0,0,1,1479.94,54.062Zm14.84-3.952,1.5-9.318a1.254,1.254,0,0,1,1.41-1.068l0.24,0.033a1.25,1.25,0,0,1,1.08,1.4l-1.51,9.317a1.245,1.245,0,0,1-1.4,1.068l-0.25-.033A1.25,1.25,0,0,1,1494.78,50.11Zm-12.72,8.077a1.74,1.74,0,0,1,1.94,1.406,2.041,2.041,0,0,1-3.88,0A1.74,1.74,0,0,1,1482.06,58.188Zm11.97,0a1.74,1.74,0,0,1,1.94,1.406,2.041,2.041,0,0,1-3.88,0A1.74,1.74,0,0,1,1494.03,58.188ZM1484.72,39.5h0a0.5,0.5,0,0,1,.5.5v9.57a0.5,0.5,0,0,1-.5.5h0a0.5,0.5,0,0,1-.5-0.5V40A0.5,0.5,0,0,1,1484.72,39.5Zm5.28,0a0.5,0.5,0,0,1,.5.5v9.563a0.5,0.5,0,0,1-1,0V40A0.5,0.5,0,0,1,1490,39.5Zm-10.27,4.75h16.63a0.478,0.478,0,0,1,.48.482V44.8a0.478,0.478,0,0,1-.48.482h-16.63a0.484,0.484,0,0,1-.48-0.482V44.732A0.484,0.484,0,0,1,1479.73,44.25Z" transform="translate(-1473 -35)"/>
</svg>
