<svg xmlns="http://www.w3.org/2000/svg"><defs><style>.cls-1{fill:#fff;fill-rule:evenodd}</style></defs><symbol id="basket-icon" viewBox="0 0 26 26"><path id="Basket_icon" class="cls-1" d="M1474.31 35h3.13a1.315 1.315 0 0 1 1.31 1.315v.085a1.315 1.315 0 0 1-1.31 1.315h-3.13A1.315 1.315 0 0 1 1473 36.4v-.085a1.315 1.315 0 0 1 1.31-1.315zm3.44 2.625h19.97a1.252 1.252 0 0 1 1.25 1.254v.087a1.252 1.252 0 0 1-1.25 1.253h-19.97a1.252 1.252 0 0 1-1.25-1.253v-.088a1.252 1.252 0 0 1 1.25-1.253zm.98.641l2.56 16.856a1.244 1.244 0 0 1-1.03 1.429l-.12.02a1.252 1.252 0 0 1-1.44-1.031l-2.56-16.857a1.251 1.251 0 0 1 1.04-1.428l.12-.02a1.247 1.247 0 0 1 1.43 1.03zm.72 10.516h16.7a1.321 1.321 0 0 1 1.32 1.324v.1a1.321 1.321 0 0 1-1.32 1.323h-16.7a1.33 1.33 0 0 1-1.33-1.323V50.1a1.33 1.33 0 0 1 1.33-1.319zm.49 5.281h14.72a1.185 1.185 0 0 1 1.18 1.188v.125a1.185 1.185 0 0 1-1.18 1.187h-14.72a1.187 1.187 0 0 1-1.19-1.187v-.126a1.187 1.187 0 0 1 1.19-1.188zm14.84-3.952l1.5-9.318a1.254 1.254 0 0 1 1.41-1.068l.24.033a1.25 1.25 0 0 1 1.08 1.4l-1.51 9.317a1.245 1.245 0 0 1-1.4 1.068l-.25-.033a1.25 1.25 0 0 1-1.07-1.4zm-12.72 8.077a1.74 1.74 0 0 1 1.94 1.406 2.041 2.041 0 0 1-3.88 0 1.74 1.74 0 0 1 1.94-1.406zm11.97 0a1.74 1.74 0 0 1 1.94 1.406 2.041 2.041 0 0 1-3.88 0 1.74 1.74 0 0 1 1.94-1.406zm-9.31-18.688a.5.5 0 0 1 .5.5v9.57a.5.5 0 0 1-.5.5.5.5 0 0 1-.5-.5V40a.5.5 0 0 1 .5-.5zm5.28 0a.5.5 0 0 1 .5.5v9.563a.5.5 0 0 1-1 0V40a.5.5 0 0 1 .5-.5zm-10.27 4.75h16.63a.478.478 0 0 1 .48.482v.068a.478.478 0 0 1-.48.482h-16.63a.484.484 0 0 1-.48-.482v-.068a.484.484 0 0 1 .48-.482z" transform="translate(-1473 -35)"/></symbol></svg>